<svg width="305" height="264" viewBox="0 0 305 264" fill="none" xmlns="http://www.w3.org/2000/svg">
<path d="M174.323 138.933L213.601 100.123C214.467 99.267 215.882 99.3719 216.585 100.366C219.894 105.043 228.451 117.596 232.244 127.5C236.411 138.381 238.437 155.792 239.042 161.844C239.159 163.007 238.242 164 237.074 164H182.592C181.548 164 180.678 163.198 180.566 162.161C180.3 159.689 179.721 155.234 178.744 152C177.717 148.603 175.205 143.675 173.963 141.332C173.542 140.54 173.685 139.564 174.323 138.933Z" fill="white"/>
<path d="M147.826 121.128L147.826 48.049C147.826 46.8684 148.833 45.9479 150.006 46.0846C155.613 46.7381 170.795 48.7703 180.757 52.5953C191.761 56.8205 207.063 68.6454 212.079 72.6525C212.988 73.3785 213.056 74.7143 212.249 75.5522L162.431 127.287C161.998 127.736 161.38 127.957 160.767 127.838C159.415 127.574 156.791 126.93 153.744 125.5C150.979 124.203 149.338 123.14 148.509 122.538C148.059 122.212 147.826 121.684 147.826 121.128Z" fill="#BF9FF7"/>
<path d="M180.489 35.4879C199.065 41.9355 215.159 51.7416 229.369 64.7379C236.898 71.6238 237.424 75.3478 230.919 83.2154C228.671 85.9347 230.397 87.4091 231.789 89.203C242.143 102.539 249.787 117.262 253.745 133.694C262.825 171.391 256.068 206.021 232.909 237.253C230.448 240.573 228.393 243.074 232.886 246.577C236.023 249.023 236.188 252.991 234.833 256.722C233.437 260.565 230.384 262.495 226.506 263.001C224.211 263.3 221.85 263.112 219.518 263.112C188.852 263.111 158.186 263.103 127.52 263.099C125.02 263.099 122.527 263.137 120.1 262.333C115.771 260.897 112.786 256.665 113.203 252.47C113.67 247.776 117.263 244.157 122.023 243.695C123.51 243.55 125.02 243.625 126.52 243.625C149.186 243.614 171.852 243.625 194.518 243.57C196.425 243.565 198.508 244.197 200.239 242.736C200.069 240.786 198.559 239.84 197.422 238.699C186.365 227.601 175.207 216.603 164.235 205.422C161.552 202.688 159.402 201.97 155.602 203.747C129.439 215.987 100.216 201.633 93.5408 173.51C88.8317 153.668 99.2668 132.316 118.355 124.015C122.935 122.024 124.022 119.554 123.98 115.042C123.789 94.8781 123.902 74.7108 123.86 54.5447C123.857 52.7616 124.32 50.879 123.099 48.9596C116.292 48.7822 109.657 50.4312 103.252 52.5985C56.9115 68.2797 28.9716 100.059 21.5248 148.582C16.8478 179.057 24.4049 207.066 42.3221 232.212C43.1923 233.433 44.1423 234.598 44.9931 235.832C48.7974 241.35 48.1907 246.96 43.4438 250.394C38.884 253.691 33.4425 252.654 29.4642 247.527C21.032 236.662 14.2838 224.84 9.48481 211.923C-19.5326 133.817 26.3612 49.2702 107.718 31.2922C132.148 25.8935 156.349 27.4286 180.489 35.4879ZM149.327 79.4505C149.331 91.9302 149.649 104.421 149.21 116.885C148.985 123.245 154.145 123.024 157.428 125.236C160.485 127.296 161.968 124.698 163.645 123.025C178.255 108.456 192.838 93.8594 207.395 79.2383C208.635 77.9929 210.356 76.9976 210.456 74.2698C193.018 59.7898 172.997 51.066 149.329 48.5617C149.329 59.2161 149.329 68.8333 149.327 79.4505ZM186.965 127.245C183.617 130.715 180.333 134.25 176.898 137.63C174.884 139.612 174.152 141.381 175.722 144.161C178.356 148.828 179.848 154.005 180.34 159.327C180.632 162.489 181.819 163.68 184.966 163.664C200.932 163.582 216.898 163.551 232.863 163.686C236.827 163.719 238.13 162.148 237.938 158.329C236.905 137.789 230.03 119.413 217.849 102.924C215.666 99.9699 213.937 100.354 211.514 102.832C203.618 110.911 195.515 118.789 186.965 127.245ZM125.736 141.897C124.585 142.565 123.365 143.139 122.294 143.916C112.719 150.861 109.281 163.815 114.201 174.26C119.237 184.951 131.087 190.851 141.881 188.041C156.481 184.239 164.398 170.42 159.982 156.443C155.591 142.542 140.937 136.044 125.736 141.897Z" fill="#7C3AED"/>
<path d="M242.081 36.9792C239.055 28.6765 241.965 23.8443 250.38 22.5595C257.803 21.426 261.8 17.3935 262.939 9.88866C263.861 3.80452 267.333 0.165834 272.368 0.00528129C277.372 -0.15428 281.027 3.30928 282.248 9.3669C284.13 18.7072 286.572 21.0219 296.279 22.664C301.295 23.5125 304.372 26.9443 304.484 31.8147C304.597 36.7313 301.735 40.6377 296.671 41.2012C287.745 42.1945 282.915 46.5741 281.961 55.7412C281.423 60.9129 276.866 64.2223 272.257 64.0354C267.632 63.8479 263.82 60.1515 263.017 55.0747C261.575 45.9676 258.844 43.0427 249.862 41.5264C246.742 40.9997 244.133 39.9145 242.081 36.9792Z" fill="#7C3AED"/>
<path d="M98.675 245.097C103.617 249.767 104.448 254.017 101.584 258.466C99.0662 262.379 94.1169 263.941 89.8467 262.17C85.5832 260.403 83.3036 255.966 83.9912 251.252C84.7866 245.797 91.7907 241.225 98.675 245.097Z" fill="#7C3AED"/>
<path d="M55.8301 253.001C56.8799 246.273 60.4057 243.229 66.1538 243.668C71.1413 244.049 74.9588 248.312 74.8848 253.418C74.8142 258.292 70.6785 262.61 65.7467 262.959C60.5748 263.324 56.5716 259.479 55.8301 253.001Z" fill="#7C3AED"/>
<path d="M142.552 171.378C136.03 175.054 130.222 173.486 127.712 167.698C125.576 162.773 128.212 156.794 133.277 155.075C138.869 153.177 144.501 156.344 145.981 162.225C146.902 165.884 145.378 168.688 142.552 171.378Z" fill="#7C3AED"/>
</svg>
