<svg width="131" height="32" viewBox="0 0 131 32" fill="none" xmlns="http://www.w3.org/2000/svg">
<g clip-path="url(#clip0_0_233)">
<path d="M19.5581 15.6544L23.9837 11.2815C24.0814 11.185 24.2407 11.1969 24.32 11.3089C24.6927 11.8358 25.6569 13.2503 26.0843 14.3662C26.5538 15.5922 26.7821 17.554 26.8504 18.236C26.8634 18.367 26.7602 18.4789 26.6285 18.4789H20.4897C20.3722 18.4789 20.274 18.3885 20.2614 18.2717C20.2315 17.9931 20.1663 17.4912 20.0561 17.1268C19.9404 16.744 19.6574 16.1887 19.5174 15.9247C19.4701 15.8355 19.4861 15.7255 19.5581 15.6544Z" fill="white"/>
<path d="M16.5725 13.6482V5.41396C16.5725 5.28094 16.6861 5.17722 16.8182 5.19262C17.4501 5.26625 19.1606 5.49523 20.2831 5.92622C21.5231 6.4023 23.2472 7.73468 23.8124 8.18619C23.9148 8.26799 23.9224 8.4185 23.8315 8.51291L18.2182 14.3422C18.1694 14.3928 18.0999 14.4177 18.0308 14.4043C17.8784 14.3745 17.5827 14.302 17.2393 14.1408C16.9279 13.9947 16.7429 13.8749 16.6495 13.8071C16.5988 13.7704 16.5725 13.7109 16.5725 13.6482Z" fill="#BF9FF7"/>
<path d="M20.2528 3.99859C22.346 4.72508 24.1594 5.83 25.7604 7.29437C26.6088 8.07025 26.668 8.48985 25.9351 9.37634C25.6818 9.68274 25.8763 9.84887 26.0332 10.051C27.1998 11.5536 28.0612 13.2126 28.5071 15.0641C29.5301 19.3116 28.7689 23.2136 26.1594 26.7327C25.882 27.1068 25.6505 27.3886 26.1568 27.7833C26.5103 28.0589 26.5288 28.506 26.3761 28.9264C26.2189 29.3594 25.8748 29.5769 25.4379 29.6339C25.1793 29.6676 24.9132 29.6464 24.6506 29.6464C21.1953 29.6463 17.7399 29.6454 14.2846 29.6449C14.0028 29.6449 13.7219 29.6492 13.4486 29.5586C12.9608 29.3968 12.6243 28.92 12.6713 28.4473C12.7239 27.9184 13.1288 27.5106 13.6651 27.4586C13.8328 27.4422 14.0029 27.4507 14.1718 27.4507C16.7259 27.4494 19.2798 27.4507 21.8337 27.4445C22.0484 27.4439 22.2831 27.5151 22.4782 27.3505C22.459 27.1308 22.2889 27.0242 22.1608 26.8956C20.9149 25.6451 19.6577 24.4059 18.4214 23.1461C18.1191 22.838 17.8768 22.7571 17.4488 22.9574C14.5007 24.3365 11.208 22.7192 10.4559 19.5504C9.92529 17.3147 11.1011 14.9088 13.2519 13.9735C13.7679 13.7491 13.8905 13.4708 13.8856 12.9624C13.8641 10.6904 13.8768 8.41808 13.8722 6.14584C13.8718 5.94493 13.924 5.7328 13.7864 5.51653C13.0195 5.49654 12.2718 5.68235 11.5501 5.92655C6.32864 7.69345 3.1805 11.2742 2.34141 16.7416C1.81442 20.1754 2.66594 23.3313 4.68478 26.1647C4.78283 26.3023 4.88986 26.4335 4.98573 26.5726C5.41438 27.1943 5.34603 27.8264 4.81116 28.2134C4.29739 28.5849 3.68425 28.468 3.23599 27.8903C2.2859 26.6661 1.52553 25.334 0.984798 23.8786C-2.28478 15.0779 2.88637 5.55153 12.0533 3.52584C14.8061 2.91754 17.5328 3.0905 20.2528 3.99859ZM16.7416 8.95213C16.7422 10.3583 16.778 11.7657 16.7284 13.1701C16.7031 13.8867 17.2845 13.8618 17.6544 14.1111C17.9989 14.3432 18.1661 14.0504 18.355 13.8619C20.0011 12.2204 21.6443 10.5757 23.2846 8.92822C23.4243 8.78789 23.6182 8.67574 23.6294 8.36839C21.6646 6.73684 19.4087 5.75387 16.7419 5.4717C16.7419 6.67219 16.7418 7.75582 16.7416 8.95213ZM20.9825 14.3374C20.6053 14.7284 20.2354 15.1267 19.8482 15.5076C19.6213 15.7309 19.5389 15.9302 19.7157 16.2435C20.0125 16.7693 20.1806 17.3526 20.236 17.9523C20.2689 18.3086 20.4027 18.4428 20.7574 18.441C22.5563 18.4317 24.3554 18.4282 26.1541 18.4435C26.6008 18.4472 26.7476 18.2702 26.726 17.8398C26.6097 15.5255 25.8349 13.4549 24.4624 11.597C24.2166 11.2642 24.0216 11.3075 23.7486 11.5867C22.8589 12.497 21.9459 13.3846 20.9825 14.3374ZM14.0835 15.9884C13.9538 16.0636 13.8164 16.1283 13.6957 16.2158C12.6168 16.9984 12.2294 18.458 12.7838 19.6349C13.3512 20.8395 14.6864 21.5043 15.9026 21.1877C17.5477 20.7593 18.4398 19.2022 17.9423 17.6273C17.4474 16.061 15.7963 15.3289 14.0835 15.9884Z" fill="#7C3AED"/>
<path d="M27.1927 4.16667C26.8519 3.23115 27.1798 2.68668 28.1278 2.54192C28.9643 2.4142 29.4147 1.95983 29.5429 1.11422C29.6469 0.428678 30.0381 0.0186855 30.6054 0.000595078C31.1693 -0.0173837 31.5811 0.372877 31.7187 1.05543C31.9306 2.10785 32.2059 2.36866 33.2996 2.55369C33.8647 2.6493 34.2114 3.03598 34.224 3.58475C34.2369 4.13874 33.9144 4.5789 33.3438 4.64239C32.3379 4.75431 31.7937 5.24779 31.6863 6.2807C31.6257 6.86343 31.1121 7.23632 30.5928 7.21526C30.0718 7.19413 29.6423 6.77763 29.5517 6.2056C29.3893 5.17945 29.0815 4.84988 28.0696 4.67903C27.718 4.61968 27.424 4.49741 27.1927 4.16667Z" fill="#7C3AED"/>
<path d="M11.0344 27.6165C11.5913 28.1427 11.685 28.6216 11.3623 29.1229C11.0785 29.5638 10.5209 29.7398 10.0397 29.5403C9.55931 29.3412 9.30245 28.8412 9.37993 28.3101C9.46955 27.6954 10.2587 27.1803 11.0344 27.6165Z" fill="#7C3AED"/>
<path d="M6.20652 28.5071C6.3248 27.7491 6.72208 27.4061 7.36975 27.4555C7.93172 27.4985 8.36186 27.9788 8.35352 28.5541C8.34557 29.1033 7.87958 29.5898 7.32388 29.6292C6.74113 29.6703 6.29007 29.2371 6.20652 28.5071Z" fill="#7C3AED"/>
<path d="M15.9782 19.3102C15.2435 19.7244 14.5889 19.5477 14.3061 18.8955C14.0655 18.3406 14.3626 17.6669 14.9332 17.4732C15.5632 17.2594 16.1978 17.6162 16.3646 18.2789C16.4684 18.6911 16.2968 19.0071 15.9782 19.3102Z" fill="#7C3AED"/>
<path d="M44.0563 18.6141C46.8146 19.1009 48.2749 20.453 48.2749 22.6705C48.2749 25.3747 46.0033 26.9972 42.3797 26.9972C38.4315 26.9972 36.0248 25.1043 35.9436 21.9944H39.1617C39.351 23.4547 40.3786 24.32 42.2986 24.32C43.867 24.32 44.8135 23.7521 44.8135 22.6705C44.8135 21.8321 44.2456 21.3724 42.8664 21.129L40.7571 20.7775C37.7825 20.2366 36.2681 18.9116 36.2681 16.7752C36.2681 14.2333 38.3504 12.5026 41.8388 12.5026C45.3273 12.5026 47.6529 14.2333 47.8422 17.2079H44.5431C44.4079 15.9099 43.4614 15.0986 41.8118 15.0986C40.2974 15.0986 39.5943 15.7476 39.5943 16.64C39.5943 17.4243 40.1622 17.884 41.7577 18.1814L44.0563 18.6141Z" fill="#7C3AED"/>
<path d="M56.3942 26.5915C53.1491 26.5915 51.3643 24.8068 51.3643 21.8051V15.8287H48.8764V12.9082H50.4719C51.2021 12.9082 51.5807 12.5296 51.5807 11.8265V8.74365H54.7446V12.9082H57.6111V15.8287H54.8257V22.8597C54.8257 23.4276 55.0962 23.671 55.664 23.671H57.9626V26.5915H56.3942Z" fill="#7C3AED"/>
<path d="M59.4862 16.3696C59.4862 14.125 60.7031 12.9081 63.0287 12.9081H67.4637V15.8287H62.9476V26.5915H59.4862V16.3696Z" fill="#7C3AED"/>
<path d="M73.0481 27.3487C73.3185 26.6186 73.3185 26.1588 73.0481 25.5098L68.0182 12.9081H71.6689L75.0492 22.2648H75.1574L78.2132 12.9081H81.7827L74.9681 32H71.3985L73.0481 27.3487Z" fill="#7C3AED"/>
<path d="M86.8495 26.5915L82.2522 12.9081H85.9029L89.1211 23.076H89.2292L92.4202 12.9081H96.0979L91.4737 26.5915H86.8495Z" fill="#7C3AED"/>
<path d="M107.913 27.0242C103.694 27.0242 100.855 24.1307 100.855 19.7498C100.855 15.369 103.694 12.4755 107.886 12.4755C111.536 12.4755 114.105 14.6388 114.538 18.2895H111.104C110.86 16.5588 109.589 15.396 107.886 15.396C105.749 15.396 104.397 17.1267 104.397 19.7498C104.397 22.3729 105.803 24.0766 107.886 24.0766C109.616 24.0766 110.968 22.9408 111.239 21.1831H114.673C114.295 24.7526 111.644 27.0242 107.913 27.0242Z" fill="#BF9FF7"/>
<path d="M122.886 27.0242C118.668 27.0242 115.828 24.1307 115.828 19.7498C115.828 15.369 118.668 12.4755 122.859 12.4755C126.51 12.4755 129.079 14.6388 129.512 18.2895H126.077C125.834 16.5588 124.563 15.396 122.859 15.396C120.723 15.396 119.371 17.1267 119.371 19.7498C119.371 22.3729 120.777 24.0766 122.859 24.0766C124.59 24.0766 125.942 22.9408 126.213 21.1831H129.647C129.268 24.7526 126.618 27.0242 122.886 27.0242Z" fill="#BF9FF7"/>
<path d="M94.7506 25.3376C94.4826 24.6072 94.7404 24.1821 95.4862 24.069C96.1441 23.9693 96.4982 23.6146 96.5992 22.9543C96.681 22.4191 96.9886 22.099 97.4348 22.0849C97.8783 22.071 98.2022 22.3756 98.3104 22.9085C98.4772 23.7301 98.6937 23.9337 99.5539 24.0782C99.9984 24.1529 100.271 24.4547 100.281 24.8832C100.291 25.3157 100.038 25.6594 99.5887 25.7089C98.7976 25.7963 98.3696 26.1816 98.2851 26.988C98.2373 27.4429 97.8335 27.7341 97.425 27.7176C97.0151 27.7012 96.6773 27.376 96.6061 26.9293C96.4783 26.1282 96.2363 25.871 95.4403 25.7376C95.1638 25.6912 94.9326 25.5957 94.7506 25.3376Z" fill="#BF9FF7"/>
</g>
<defs>
<clipPath id="clip0_0_233">
<rect width="130.366" height="32" fill="white"/>
</clipPath>
</defs>
</svg>
