<svg width="31" height="24" viewBox="0 0 31 24" fill="none" xmlns="http://www.w3.org/2000/svg">
<g clip-path="url(#clip0_0_273)">
<path d="M5.35227 18.3176C5.53707 18.1328 5.79116 18.025 6.06065 18.025H30.4995C30.9461 18.025 31.1694 18.564 30.8537 18.8797L26.026 23.7074C25.8412 23.8922 25.5871 24 25.3176 24H0.878742C0.432159 24 0.208867 23.461 0.524556 23.1453L5.35227 18.3176Z" fill="url(#paint0_linear_0_273)"/>
<path d="M5.35227 0.292589C5.54477 0.107796 5.79886 0 6.06065 0H30.4995C30.9461 0 31.1694 0.53898 30.8537 0.854668L26.026 5.68239C25.8412 5.86718 25.5871 5.97498 25.3176 5.97498H0.878742C0.432159 5.97498 0.208867 5.436 0.524556 5.12031L5.35227 0.292589Z" fill="url(#paint1_linear_0_273)"/>
<path d="M26.026 9.24736C25.8412 9.06257 25.5871 8.95477 25.3176 8.95477H0.878742C0.432159 8.95477 0.208867 9.49375 0.524556 9.80944L5.35227 14.6372C5.53707 14.822 5.79116 14.9297 6.06065 14.9297H30.4995C30.9461 14.9297 31.1694 14.3908 30.8537 14.0751L26.026 9.24736Z" fill="url(#paint2_linear_0_273)"/>
</g>
<defs>
<linearGradient id="paint0_linear_0_273" x1="28.1649" y1="-2.88395" x2="11.2512" y2="29.5125" gradientUnits="userSpaceOnUse">
<stop stop-color="#00FFA3"/>
<stop offset="1" stop-color="#DC1FFF"/>
</linearGradient>
<linearGradient id="paint1_linear_0_273" x1="20.7693" y1="-6.74505" x2="3.85568" y2="25.6514" gradientUnits="userSpaceOnUse">
<stop stop-color="#00FFA3"/>
<stop offset="1" stop-color="#DC1FFF"/>
</linearGradient>
<linearGradient id="paint2_linear_0_273" x1="24.4436" y1="-4.82678" x2="7.52992" y2="27.5697" gradientUnits="userSpaceOnUse">
<stop stop-color="#00FFA3"/>
<stop offset="1" stop-color="#DC1FFF"/>
</linearGradient>
<clipPath id="clip0_0_273">
<rect width="30.6218" height="24" fill="white" transform="translate(0.378174)"/>
</clipPath>
</defs>
</svg>
