<svg width="16" height="12" viewBox="0 0 16 12" fill="none" xmlns="http://www.w3.org/2000/svg">
<g clip-path="url(#clip0_0_544)">
<path d="M2.98711 9.15887C3.07951 9.06647 3.20655 9.01257 3.3413 9.01257H15.5607C15.784 9.01257 15.8957 9.28206 15.7378 9.43991L13.324 11.8538C13.2316 11.9462 13.1045 12.0001 12.9698 12.0001H0.750345C0.527054 12.0001 0.415408 11.7306 0.573252 11.5727L2.98711 9.15887Z" fill="url(#paint0_linear_0_544)"/>
<path d="M2.98693 0.146295C3.08317 0.053898 3.21022 0 3.34111 0H15.5606C15.7838 0 15.8955 0.26949 15.7376 0.427334L13.3238 2.84119C13.2314 2.93359 13.1043 2.98749 12.9696 2.98749H0.750162C0.526871 2.98749 0.415225 2.718 0.573069 2.56015L2.98693 0.146295Z" fill="url(#paint1_linear_0_544)"/>
<path d="M13.324 4.62371C13.2316 4.53131 13.1045 4.47742 12.9698 4.47742H0.750345C0.527054 4.47742 0.415408 4.74691 0.573252 4.90475L2.98711 7.31861C3.07951 7.41101 3.20655 7.4649 3.3413 7.4649H15.5607C15.784 7.4649 15.8957 7.19542 15.7378 7.03757L13.324 4.62371Z" fill="url(#paint2_linear_0_544)"/>
</g>
<defs>
<linearGradient id="paint0_linear_0_544" x1="14.3934" y1="-1.44191" x2="5.9366" y2="14.7563" gradientUnits="userSpaceOnUse">
<stop stop-color="#00FFA3"/>
<stop offset="1" stop-color="#DC1FFF"/>
</linearGradient>
<linearGradient id="paint1_linear_0_544" x1="10.6955" y1="-3.37253" x2="2.23863" y2="12.8257" gradientUnits="userSpaceOnUse">
<stop stop-color="#00FFA3"/>
<stop offset="1" stop-color="#DC1FFF"/>
</linearGradient>
<linearGradient id="paint2_linear_0_544" x1="12.5328" y1="-2.41336" x2="4.07594" y2="13.7849" gradientUnits="userSpaceOnUse">
<stop stop-color="#00FFA3"/>
<stop offset="1" stop-color="#DC1FFF"/>
</linearGradient>
<clipPath id="clip0_0_544">
<rect width="15.3109" height="12" fill="white" transform="translate(0.5)"/>
</clipPath>
</defs>
</svg>
